<svg width="55" height="55" viewBox="0 0 55 55" fill="none" xmlns="http://www.w3.org/2000/svg"><path fill-rule="evenodd" clip-rule="evenodd" d="M26.6129 7.0816v-3.181l-1.147 1.147-1.2544-1.2545L27.5.5046l3.2885 3.2885-1.2544 1.2544-1.147-1.147v3.1811h-1.7742zM27.5 31.9203c6.3587 0 11.5322-5.1735 11.5322-11.5322S33.8587 8.8558 27.5 8.8558s-11.5323 5.1736-11.5323 11.5323c0 6.3587 5.1736 11.5322 11.5323 11.5322zm-9.7581-11.5322c0-.2998.0186-.5943.0451-.8871h1.5082c.7676 0 1.4329.5198 1.6191 1.2639l.0628.2512c.2868 1.1479 1.1275 2.0562 2.2507 2.4305.5436.1819.9516.622 1.0911 1.179l.0628.2512a3.437 3.437 0 0 0 3.3401 2.6072h.2759c.5224 0 1.0209.249 1.3341.667l1.1444 1.5269a9.6962 9.6962 0 0 1-2.9762.4682c-5.3802 0-9.7581-4.3778-9.7581-9.758zm18.1383 4.973l-.5505-.2759c-.9989-.5003-1.62-1.5035-1.62-2.6544 0-.58.1702-1.1413.4925-1.6252a2.922 2.922 0 0 1 2.4377-1.3046h.574c.0255.2928.0441.5873.0441.8871 0 1.8175-.5085 3.5137-1.3778 4.973zm-.8585-11.1827h-.5856c-1.87 0-3.4934 1.3306-3.8607 3.1642-.1473.7363-.7992 1.2713-1.5503 1.2713-.6025 0-1.1444-.3353-1.4142-.8737l-.298-.5973c-.6407-1.2817-1.9284-2.0774-3.3613-2.0774-.7567 0-1.4363-.4206-1.7742-1.0963l-.6432-1.2856c1.652-1.2817 3.7177-2.0536 5.9658-2.0536 3.0234 0 5.7297 1.3831 7.5217 3.5484zm-14.8368-.227l.4054.8105c.6407 1.2821 1.9284 2.0778 3.3613 2.0778.7567 0 1.4363.4206 1.7742 1.0963l.298.5973c.5722 1.144 1.7218 1.8548 3.0013 1.8548 1.5931 0 2.9771-1.1336 3.2889-2.6968.2023-1.008 1.0942-1.7387 2.1212-1.7387h1.7452a9.7002 9.7002 0 0 1 .6991 1.7742h-.2409a4.6937 4.6937 0 0 0-3.9135 2.0943c-.5163.7753-.7896 1.6784-.7896 2.6435 0 1.7928.9962 3.4046 2.6002 4.2077l.2872.1438c-.7559.8602-1.6542 1.5931-2.6674 2.1458l-1.4051-1.8738c-.6459-.8629-1.6759-1.3774-2.7536-1.3774h-.2759a1.6662 1.6662 0 0 1-1.6191-1.2644l-.0628-.2508c-.2868-1.1479-1.1275-2.0562-2.2507-2.4309a1.662 1.662 0 0 1-1.0911-1.1786l-.0628-.2512a3.4366 3.4366 0 0 0-3.3392-2.608h-1.1756c.4029-1.4169 1.1171-2.6994 2.0653-3.7754zm31.5985 34.1221l-2.9931-.855v-.4518c1.6066-1.124 2.6613-2.984 2.6613-5.0883v-1.7742c0-3.4232-2.7856-6.2096-6.2097-6.2096-3.424 0-6.2096 2.7864-6.2096 6.2096v1.7742c0 2.1043 1.0547 3.9651 2.6612 5.0883v.4518l-2.993.8559c-.9538.2724-1.7617.8542-2.3295 1.6143-.5679-.7601-1.3757-1.3419-2.3295-1.6152l-2.9931-.855v-.4518c1.6065-1.124 2.6613-2.984 2.6613-5.0883v-1.7742c0-3.4232-2.7856-6.2096-6.2097-6.2096-3.4241 0-6.2097 2.7864-6.2097 6.2096v1.7742c0 2.1043 1.0547 3.9651 2.6613 5.0883v.4518l-2.9931.8559c-.9538.2724-1.7616.8542-2.3295 1.6143-.5678-.7601-1.3757-1.3419-2.3295-1.6152l-2.993-.855v-.4518c1.6065-1.124 2.6612-2.984 2.6612-5.0883v-1.7742c0-3.4232-2.7856-6.2096-6.2096-6.2096-3.4241 0-6.2097 2.7864-6.2097 6.2096v1.7742c0 2.1043 1.0547 3.9651 2.6613 5.0883v.4518l-2.9931.8559C1.3228 48.6154 0 50.3701 0 52.3396v2.6453h55v-2.6453c0-1.9695-1.3228-3.7242-3.2166-4.2661zm-8.3157-.447a6.173 6.173 0 0 0 1.7742.2616c.6164 0 1.212-.0931 1.7742-.2616v.2616c0 .9785-.7957 1.7742-1.7742 1.7742s-1.7742-.7957-1.7742-1.7742v-.2616zm-2.6613-5.9481v-1.7742c0-2.4455 1.99-4.4354 4.4355-4.4354 2.4456 0 4.4355 1.9899 4.4355 4.4354v1.7742c0 2.4456-1.9899 4.4355-4.4355 4.4355-2.4455 0-4.4355-1.9899-4.4355-4.4355zm-15.0806 5.9481a6.1719 6.1719 0 0 0 1.7742.2616c.6164 0 1.212-.0931 1.7742-.2616v.2616c0 .9785-.7957 1.7742-1.7742 1.7742s-1.7742-.7957-1.7742-1.7742v-.2616zm-2.6613-5.9481v-1.7742c0-2.4455 1.9899-4.4354 4.4355-4.4354s4.4355 1.9899 4.4355 4.4354v1.7742c0 2.4456-1.9899 4.4355-4.4355 4.4355s-4.4355-1.9899-4.4355-4.4355zM7.9839 47.6265a6.1721 6.1721 0 0 0 1.7742.2616 6.173 6.173 0 0 0 1.7742-.2616v.2616c0 .9785-.7957 1.7742-1.7742 1.7742s-1.7742-.7957-1.7742-1.7742v-.2616zm-2.6613-5.9481v-1.7742c0-2.4455 1.9899-4.4354 4.4355-4.4354 2.4455 0 4.4354 1.9899 4.4354 4.4354v1.7742c0 2.4456-1.9899 4.4355-4.4354 4.4355-2.4456 0-4.4355-1.9899-4.4355-4.4355zM1.7742 53.2107v-.8711c0-1.1816.794-2.2346 1.9301-2.5595l2.7042-.7727c.4708 1.4073 1.7863 2.4291 3.3496 2.4291 1.5632 0 2.8787-1.0227 3.3495-2.4291l2.7042.7719c1.1362.3257 1.9301 1.3787 1.9301 2.5603v.8711H1.7742zm17.7419 0v-.8711c0-1.1816.794-2.2346 1.9302-2.5595l2.7041-.7727c.4709 1.4073 1.7864 2.4291 3.3496 2.4291 1.5632 0 2.8787-1.0227 3.3496-2.4291l2.7041.7719c1.1362.3257 1.9302 1.3787 1.9302 2.5603v.8711H19.5161zm17.742 0v-.8711c0-1.1816.7939-2.2346 1.9301-2.5595l2.7042-.7727c.4708 1.4073 1.7863 2.4291 3.3495 2.4291 1.5633 0 2.8788-1.0227 3.3496-2.4291l2.7042.7719c1.1361.3257 1.9301 1.3787 1.9301 2.5603v.8711H37.2581zM10.3852 22.4222l-1.147-1.147h4.9553V19.501H9.2383l1.1469-1.147-1.2544-1.2544-3.2885 3.2885 3.2885 3.2885 1.2544-1.2544zm30.4213-1.147V19.501h4.9552l-1.1469-1.147 1.2544-1.2544 3.2885 3.2885-3.2885 3.2885-1.2544-1.2544 1.1469-1.147h-4.9552zm-2.9212-10.0179l2.0341-2.0341V10.63h1.7741V6.1946h-4.4354v1.7742h1.4068l-2.034 2.0341 1.2544 1.2544zm-20.7705 0l-2.0341-2.0341V10.63h-1.7742V6.1946h4.4355v1.7742h-1.4069l2.0341 2.0341-1.2544 1.2544z" fill="#FCCD14"/></svg>