<svg width="50" height="51" viewBox="0 0 50 51" fill="none" xmlns="http://www.w3.org/2000/svg"><g clip-path="url(#clip0)" fill="#FCCD14"><path d="M49.1666 16.9696h-25c-.5 0-.8333.3334-.8333.8334v31.6666c0 .5.3333.8334.8333.8334h25c.5 0 .8334-.3334.8334-.8334V17.803c0-.5-.3334-.8334-.8334-.8334zm-.8333 1.6667v5H25v-1.6667h10V20.303H25v-1.6667h23.3333zM25 48.6363V25.303h23.3333v23.3333H25z"/><path d="M31.6667 26.9696h-2.5v1.6667h2.5v-1.6667zM35.8333 26.9696h-2.5v1.6667h2.5v-1.6667zM40 26.9696h-2.5v1.6667H40v-1.6667zM44.1667 26.9696h-2.5v1.6667h2.5v-1.6667zM30.8333 31.1363H27.5v1.6667h3.3333v-1.6667zM35.8333 31.1363H32.5v1.6667h3.3333v-1.6667zM40.8333 31.1363H37.5v1.6667h3.3333v-1.6667zM45.8333 31.1363H42.5v1.6667h3.3333v-1.6667zM30.8333 34.4696H27.5v1.6667h3.3333v-1.6667zM35.8333 34.4696H32.5v1.6667h3.3333v-1.6667zM40.8333 34.4696H37.5v1.6667h3.3333v-1.6667zM45.8333 34.4696H42.5v1.6667h3.3333v-1.6667zM30.8333 37.803H27.5v1.6666h3.3333V37.803zM35.8333 37.803H32.5v1.6666h3.3333V37.803zM40.8333 37.803H37.5v1.6666h3.3333V37.803zM45.8333 37.803H42.5v1.6666h3.3333V37.803zM30.8333 41.1363H27.5v1.6667h3.3333v-1.6667zM35.8333 41.1363H32.5v1.6667h3.3333v-1.6667zM40.8333 41.1363H37.5v1.6667h3.3333v-1.6667zM45.8333 41.1363H42.5v1.6667h3.3333v-1.6667zM30.8333 44.4696H27.5v1.6667h3.3333v-1.6667zM35.8333 44.4696H32.5v1.6667h3.3333v-1.6667zM40.8333 44.4696H37.5v1.6667h3.3333v-1.6667zM45.8333 44.4696H42.5v1.6667h3.3333v-1.6667zM1.6667 11.9696h9.1666c.5 0 .8334-.3333.8334-.8333V1.9696H40v11.6667h1.6667v-12.5c0-.5-.3334-.8333-.8334-.8333h-30c-.0833 0-.1666 0-.25.0833H10.5c-.0833.0833-.1667.0833-.25.1667l-10 10c-.0833.0833-.0833.1666-.1667.25v.0833c0 .0833-.0833.1667-.0833.25v9.1667h1.6667v-8.3334zM10 10.303H2.8333l3.5834-3.5834L10 3.1363v7.1667zM20.8333 36.1363h-9.1666V24.4697c0-.5-.3334-.8334-.8334-.8334h-10c-.5 0-.8333.3334-.8333.8334V49.4697c0 .5.3333.8333.8333.8333h20c.5 0 .8334-.3333.8334-.8333v-12.5c0-.5-.3334-.8334-.8334-.8334zM1.6667 37.803H10v2.5H1.6667v-2.5zM10 36.1363H1.6667v-2.5H10v2.5zm0-4.1666H1.6667v-2.5H10v2.5zm-8.3333 10H10v2.5H1.6667v-2.5zm10 0H20v2.5h-8.3333v-2.5zM20 40.303h-8.3333v-2.5H20v2.5zm-18.3333-15H10v2.5H1.6667v-2.5zm0 20.8333H10v2.5H1.6667v-2.5zM20 48.6363h-8.3333v-2.5H20v2.5z"/><path d="M37.5 4.4696h-5.8333v1.6667H37.5V4.4696zM37.5 8.6363h-15v1.6667h15V8.6363zM39.1667 20.303h-2.5v1.6666h2.5V20.303z"/></g><defs><clipPath id="clip0"><path fill="#fff" transform="translate(0 .303)" d="M0 0h50v50H0z"/></clipPath></defs></svg>