<svg width="50" height="51" viewBox="0 0 50 51" fill="none" xmlns="http://www.w3.org/2000/svg"><path fill-rule="evenodd" clip-rule="evenodd" d="M.2123 48.7195l9.7656-12.3047a.9768.9768 0 0 1 .7649-.3696h8.5544L11.994 24.5904c-1.7132-2.5688-2.6184-5.5637-2.6184-8.6624 0-8.6155 7.0091-15.625 15.625-15.625 8.6158 0 15.625 7.0095 15.625 15.625 0 3.0987-.9053 6.094-2.6184 8.6624l-7.3033 11.4548h8.5545a.9762.9762 0 0 1 .7648.3696l9.7657 12.3047a.9752.9752 0 0 1 .1144 1.0315.9764.9764 0 0 1-.8793.552H.9771a.9763.9763 0 0 1-.8792-.552.9759.9759 0 0 1 .1144-1.0315zm12.0243-4.5689H6.3318L2.999 48.3499h5.9052l3.3325-4.1993zm10.9833-1.9531l-2.6772-4.1992h-.9296l-3.3329 4.1992h6.9397zm7.1685-4.1992h-.9296l-2.6771 4.1992h6.9393l-3.3326-4.1992zm8.2154 10.3516l-3.3325-4.1993h-20.541l-3.3329 4.1993h27.2064zm-.8393-4.1993l3.3329 4.1993h5.9048l-3.3325-4.1993h-5.9052zm-1.5499-1.9531h5.9048l-3.3325-4.1992h-5.9052l3.3329 4.1992zM11.3287 15.928c0 2.7149.7938 5.3383 2.2957 7.5866l.0066.0101.0044.0071c1.2654 1.9844 10.1227 15.8768 11.3652 17.8257.494-.7744 10.7238-16.8197 11.3651-17.8257l.0037-.0057c.0025-.0038.0049-.0076.0077-.0115 1.5015-2.2483 2.2953-4.8717 2.2953-7.5866 0-7.5386-6.1332-13.6719-13.6718-13.6719-7.5386 0-13.6719 6.1333-13.6719 13.6719zm2.4582 26.2695l3.3325-4.1992h-5.9048l-3.3329 4.1992h5.9052zm16.0959-15.5273c0-.5391.4376-.9766.9766-.9766s.9765.4375.9765.9766c0 .539-.4375.9765-.9765.9765s-.9766-.4375-.9766-.9765zM25 25.6936c5.3612 0 9.7656-4.3415 9.7656-9.7656 0-5.3848-4.3808-9.7657-9.7656-9.7657-5.3848 0-9.7656 4.3809-9.7656 9.7657 0 5.4256 4.4059 9.7656 9.7656 9.7656zm0-17.5781c4.3079 0 7.8125 3.5045 7.8125 7.8125 0 4.348-3.5328 7.8125-7.8125 7.8125-4.2809 0-7.8125-3.4645-7.8125-7.8125 0-4.308 3.5046-7.8125 7.8125-7.8125zm2.7729 21.2429c.2785-.462.8789-.6108 1.3405-.3323.4619.2785.6107.8785.3322 1.3405l-3.6094 5.9883c-.2774.46-.8766.6119-1.3405.3322-.462-.2784-.6107-.8785-.3323-1.3404l3.6095-5.9883z" fill="#FCCD14"/></svg>