<svg width="15" height="16" viewBox="0 0 15 16" fill="none" xmlns="http://www.w3.org/2000/svg"><path d="M14.6637 12.1404l-2.3165-2.3167c-.4614-.4596-1.2255-.4456-1.703.032l-1.167 1.1668a33.9953 33.9953 0 0 1-.2303-.1281c-.737-.4084-1.7457-.968-2.8072-2.0303C5.3751 7.7997 4.815 6.7894 4.4053 6.052c-.0432-.078-.0847-.1534-.1255-.225l.7832-.782.3851-.3856c.4782-.4784.4914-1.2422.031-1.7031L3.1628.6392c-.4604-.4603-1.2248-.4464-1.703.032l-.6529.6566.0179.0177c-.219.2794-.4019.6015-.538.949-.1255.3306-.2036.6462-.2394.9624-.3058 2.5359.853 4.8534 3.9978 7.9983 4.347 4.3468 7.8503 4.0184 8.0014 4.0024a3.9176 3.9176 0 0 0 .9652-.2425c.3444-.1346.6663-.3172.9455-.5357l.0142.0127.6615-.6477c.4772-.4782.4909-1.2424.0308-1.704z" fill="#fff"/></svg>