<svg width="50" height="51" viewBox="0 0 50 51" fill="none" xmlns="http://www.w3.org/2000/svg"><path d="M48.6967 19.8075l-7.4796-4.4903a.7713.7713 0 0 0 .0034-.0734V1.0426a.7394.7394 0 0 0-.7396-.7396h-3.2545a.7397.7397 0 0 0 0 1.4792h2.5149v12.649l-6.6138-3.9704h3.409a.7397.7397 0 0 0 0-1.4792h-5.7532a.7457.7457 0 0 0-.1058.0084l-2.807-1.6848h8.6656a.7398.7398 0 0 0 .7396-.74.7397.7397 0 0 0-.7396-.7396H25.4908a.7408.7408 0 0 0-.0776.0042l-3.7736-2.2654c-.3455-.2075-.808-.0917-1.0152.2534l-.258.43h-7.4991a.7396.7396 0 0 0-.7395.7396v7.8897c0 .4082.3313.7396.7395.7396h1.8748l-5.0796 8.4619V1.7822h24.1453a.7394.7394 0 0 0 .7396-.7396.7394.7394 0 0 0-.7396-.7396H8.9228c-.4085 0-.7399.331-.7399.7396v23.5001l-7.05 11.744a.7397.7397 0 0 0 .2534 1.0148l21.6461 12.9942a.7471.7471 0 0 0 .5599.0833l8.6599-2.1625a.7478.7478 0 0 0 .4548-.3372l4.939-8.2268h2.8349a.74.74 0 0 0 .74-.7399v-5.215l7.7292-12.8753a.7397.7397 0 0 0-.2534-1.0148zm-33.0678-7.67h-2.0216V5.727h5.8712L15.63 12.1375h-.0011zm9.3371 36.3736l1.9489-3.2461 3.2466 1.9489-.5355.1334-4.66 1.1638zM39.7413 38.173h-1.207l1.207-2.0109v2.0109zm-7.9218 8.3109l-4.7773-2.8678a.7398.7398 0 0 0-1.0148.2534l-2.8677 4.7773L2.7822 36.4136 21.5123 5.2133 47.3012 20.695 31.8195 46.4839z" fill="#fff"/><path fill-rule="evenodd" clip-rule="evenodd" d="M8.0829 1.0425c0-.464.3762-.8396.84-.8396h24.8849a.8394.8394 0 0 1 .8396.8396.8394.8394 0 0 1-.8396.8396H9.7624v19.8355l4.803-8.001h-1.6981a.84.84 0 0 1-.8396-.8396V4.9873a.8397.8397 0 0 1 .8396-.8396h7.4425l.2289-.3814c.2355-.3925.7594-.5237 1.1524-.2877l3.7458 2.2487a.8105.8105 0 0 1 .0539-.0018h11.0453a.8396.8396 0 0 1 .8395.8396c0 .4638-.3757.84-.8395.84h-8.3047l2.4678 1.4812a.7758.7758 0 0 1 .0841-.0048h5.7531a.8397.8397 0 0 1 0 1.6792h-3.0481l6.153 3.6938V1.8821h-2.415a.8396.8396 0 0 1 0-1.6792h3.2546a.8394.8394 0 0 1 .8396.8396v14.2012l-.0002.0187 7.4278 4.4592a.8397.8397 0 0 1 .2877 1.152l-7.7149 12.8516v5.1873a.84.84 0 0 1-.84.8399h-2.7783l-4.9098 8.1783a.8482.8482 0 0 1-.5164.3827l-8.6598 2.1625a.8477.8477 0 0 1-.6357-.0945m0 0L1.3349 37.3871a.8396.8396 0 0 1-.2877-1.1519l7.0357-11.7203V1.0425m.84-.6396a.6398.6398 0 0 0-.64.6396v23.5279L1.2186 36.3381a.6398.6398 0 0 0 .2192.8776l21.646 12.9942a.6481.6481 0 0 0 .4842.072l8.6599-2.1626a.648.648 0 0 0 .3934-.2915l4.9681-8.2754h2.8915a.64.64 0 0 0 .64-.6399v-5.2427l7.7434-12.8991a.6397.6397 0 0 0-.2191-.8776l-7.5337-4.5227.006-.0628a.6674.6674 0 0 0 .003-.0639V1.0425a.6394.6394 0 0 0-.6396-.6396h-3.2546a.6396.6396 0 0 0 0 1.2792h2.615v12.9257l-7.0747-4.2471h3.7698a.6397.6397 0 0 0 0-1.2792h-5.7531a.6461.6461 0 0 0-.0917.0074l-.0352.005-3.1469-1.8888h9.0266a.6398.6398 0 0 0 0-1.2796H25.4908a.6399.6399 0 0 0-.0672.0037l-.0332.0035L21.5881 3.65c-.2981-.1791-.6992-.0787-.878.2191l-.2871.4785h-7.5557a.6397.6397 0 0 0-.6396.6396v7.8897a.64.64 0 0 0 .6396.6396h2.0515l-5.3564 8.9228V1.6821h24.2454a.6394.6394 0 0 0 .6396-.6396.6394.6394 0 0 0-.6396-.6396H8.9228zM21.478 5.076l25.9604 15.5846L31.8538 46.621l-4.8631-2.9193a.6398.6398 0 0 0-.8776.2192l-2.9192 4.863-20.549-12.3361L21.478 5.076zm.0686.2744L2.9194 36.3793l20.206 12.1302 2.8163-4.6916a.8397.8397 0 0 1 1.152-.2876l4.6915 2.8163L47.164 20.7292 21.5466 5.3504zm-8.0393.2765h6.1479l-3.9686 6.6105h-2.1793V5.6269zm.2.2v6.2105h1.8661l3.7284-6.2105h-5.5945zm26.134 29.9742v2.4718h-1.4837l1.4837-2.4718zm-1.1304 2.2718h.9304v-1.55l-.9304 1.55zm-11.8303 7.0548l3.5395 2.1247-.7699.1918-4.8942 1.2224 2.1246-3.5389zm.0686.2744l-1.7732 2.9534 4.4257-1.1053.3011-.075-2.9536-1.7731z" fill="#fff"/><path d="M26.5588 13.7643l5.4114 3.2484a.7397.7397 0 0 0 1.0148-.2534.7394.7394 0 0 0-.2535-1.0151l-5.4114-3.2485a.7398.7398 0 0 0-.7613 1.2686z" fill="#fff"/><path fill-rule="evenodd" clip-rule="evenodd" d="M27.3716 12.4099l5.4114 3.2484v.0001a.8395.8395 0 0 1 .2876 1.1524.8396.8396 0 0 1-1.1519.2876l-5.4114-3.2485c-.3975-.2386-.5263-.7545-.2877-1.1523a.8396.8396 0 0 1 1.152-.2877zm-.9805.3906a.6396.6396 0 0 1 .8775-.2191l5.4114 3.2484a.6395.6395 0 0 1 .2192.8779.6395.6395 0 0 1-.8776.2192m0 0l-5.4114-3.2484a.64.64 0 0 1-.2191-.878" fill="#fff"/><path d="M34.6759 18.6373l7.441 4.4666c.3734.224.8718.0688 1.0534-.3264.1548-.3379.0263-.7507-.2921-.9418l-7.4409-4.4669a.7396.7396 0 0 0-1.0148.2534.74.74 0 0 0 .2534 1.0151z" fill="#fff"/><path fill-rule="evenodd" clip-rule="evenodd" d="M35.4887 17.2829l7.441 4.467c.362.2173.5075.6849.3315 1.0692l-.0001.0001c-.2063.4491-.771.6251-1.1957.3704l-7.441-4.4666a.84.84 0 0 1-.2877-1.1523v-.0001a.8398.8398 0 0 1 1.152-.2877zm-.9805.3907a.64.64 0 0 0 .2191.8779l7.441 4.4666c.3222.1932.7543.0588.9111-.2824.1334-.2915.0221-.6494-.2526-.8143l.0514-.0858-.0514.0858-7.441-4.467a.6398.6398 0 0 0-.8776.2191" fill="#fff"/><path d="M19.3872 14.9802l6.0879 3.6548a.7397.7397 0 0 0 1.0148-.2534.739.739 0 0 0-.2534-1.0148l-6.0879-3.6548a.7397.7397 0 0 0-1.0148.2534.7398.7398 0 0 0 .2534 1.0148z" fill="#fff"/><path fill-rule="evenodd" clip-rule="evenodd" d="M20.2 13.6262l6.0879 3.6547a.839.839 0 0 1 .2877 1.1521.8399.8399 0 0 1-1.1519.2877l-6.088-3.6548a.8398.8398 0 0 1-.2877-1.152.8397.8397 0 0 1 1.152-.2877zm-.7614 1.2682l6.0879 3.6547a.64.64 0 0 0 .8777-.2191.6391.6391 0 0 0-.2192-.8776l-6.0879-3.6547a.6397.6397 0 0 0-.6585 1.0967z" fill="#fff"/><path d="M40.4416 25.8942l-11.4993-6.9036a.7395.7395 0 0 0-1.0148.2538.7396.7396 0 0 0 .2534 1.0147l11.4993 6.9033c.3735.2239.8723.0688 1.0534-.3264.1552-.3379.0268-.7507-.292-.9418z" fill="#fff"/><path fill-rule="evenodd" clip-rule="evenodd" d="M28.9937 18.9048c-.3974-.2387-.9133-.1098-1.152.288l1.152-.288zm0 0l11.4993 6.9035.0001.0001c.3623.2172.5079.6848.3314 1.0691m-11.9337-7.8013a.6396.6396 0 0 0-.8776.2195v.0001a.6397.6397 0 0 0 .2191.8775h.0001l11.4993 6.9032c.3222.1933.7546.0588.911-.2823l.0001-.0001c.1338-.2914.0226-.6493-.2526-.8142l-.0001-.0001-11.4993-6.9036z" fill="#fff"/><path d="M38.4112 29.2766l-20.293-12.1824a.7394.7394 0 0 0-1.0148.2534.7398.7398 0 0 0 .2534 1.0148l20.2931 12.1824c.3734.2239.8722.0688 1.0534-.3265.1551-.3382.0263-.7506-.2921-.9417z" fill="#fff"/><path fill-rule="evenodd" clip-rule="evenodd" d="M18.1697 17.0084l20.293 12.1823c.3619.2173.508.6845.3314 1.0693-.2059.4492-.7711.6251-1.1957.3704L17.3054 18.448a.8395.8395 0 0 1-.2877-1.1519m1.152-.2877c-.3974-.2386-.9133-.1103-1.152.2876l1.152-.2876zm-.103.1714a.6394.6394 0 0 0-.8775.2191v.0001a.6397.6397 0 0 0 .2191.8776l20.293 12.1823c.3223.1933.7547.0588.911-.2823.1339-.2918.0223-.6494-.2525-.8144l.0456-.076-.0456.076-20.2931-12.1824z" fill="#fff"/><path d="M36.381 32.6584L20.8232 23.319a.74.74 0 0 0-1.0151.2534.7394.7394 0 0 0 .2538 1.0147l15.5577 9.3399c.3734.2239.8722.0688 1.0534-.3264.1552-.3383.0264-.7511-.292-.9422z" fill="#fff"/><path fill-rule="evenodd" clip-rule="evenodd" d="M19.7224 23.5207a.8402.8402 0 0 1 1.1523-.2876l15.5578 9.3395c.3619.2172.5079.6848.3314 1.0695-.206.4493-.7711.6252-1.1957.3705l-15.5578-9.3398a.8396.8396 0 0 1-.288-1.1521z" fill="#fff"/><path d="M13.2962 25.1268l12.1759 7.3091a.7395.7395 0 0 0 1.0147-.2534.7395.7395 0 0 0-.2534-1.0147l-12.1758-7.3096a.7394.7394 0 0 0-1.0148.2538.7398.7398 0 0 0 .2534 1.0148z" fill="#fff"/><path fill-rule="evenodd" clip-rule="evenodd" d="M12.957 24.0605a.8393.8393 0 0 1 1.1519-.2881l12.176 7.3095a.8397.8397 0 1 1-.8643 1.4397l-12.1759-7.3091a.8398.8398 0 0 1-.2877-1.152zm.3906.9805l12.1758 7.3091-12.1758-7.3091zm0 0a.6397.6397 0 0 1-.2191-.8776.6394.6394 0 0 1 .8775-.2195s.0001 0 0 0l12.1759 7.3095a.6397.6397 0 0 1 .2192.8776" fill="#fff"/><path d="M34.3506 36.0404l-5.4114-3.2485a.7395.7395 0 0 0-1.0148.2535.739.739 0 0 0 .2534 1.0147l5.4115 3.2485c.3734.2243.8722.0688 1.0533-.3264.1548-.3379.0264-.7507-.292-.9418z" fill="#fff"/><path fill-rule="evenodd" clip-rule="evenodd" d="M28.9907 32.7061l5.4114 3.2484-5.4114-3.2484zm-.103.1714a.6394.6394 0 0 0-.8775.2191.639.639 0 0 0 .2191.8776l5.4114 3.2485c.3221.1935.7546.0589.911-.2824.1335-.2914.0222-.6494-.2526-.8143l-5.4114-3.2485z" fill="#fff"/><path d="M11.2658 28.5088l4.7349 2.8425a.7391.7391 0 0 0 1.0152-.2534.7395.7395 0 0 0-.2538-1.0148l-4.7349-2.8425a.7398.7398 0 0 0-1.0148.2534c-.2102.3505-.0967.8049.2534 1.0148z" fill="#fff"/><path fill-rule="evenodd" clip-rule="evenodd" d="M12.0787 27.1548a.8397.8397 0 0 0-1.152.2876l1.152-.2876zm0 0l4.7348 2.8425h.0001a.8395.8395 0 0 1 .288 1.152.8392.8392 0 0 1-1.1524.2877l-.0001-.0001-4.7347-2.8424m.0514-.0858l.0514-.0858a.6394.6394 0 0 1-.219-.8775m.1676.9633l.0515-.0857 4.7349 2.8425.0001.0001a.6392.6392 0 0 0 .8778-.2192h.0001a.6396.6396 0 0 0-.2195-.8776h-.0001l-4.7349-2.8426a.6397.6397 0 0 0-.8775.2192" fill="#fff"/><path d="M32.3203 39.4228l-12.8521-7.7154a.7397.7397 0 0 0-.7617 1.2682l12.8524 7.7154c.3734.224.8718.0688 1.0534-.3264.1548-.3379.0263-.7507-.292-.9418z" fill="#fff"/><path fill-rule="evenodd" clip-rule="evenodd" d="M18.3673 31.9092a.8402.8402 0 0 1 1.1523-.2877l.0001.0001 12.852 7.7154c.362.2172.5075.6848.3315 1.0691l-.0001.0001c-.2063.4492-.771.6252-1.1957.3705v-.0001L18.655 33.0612a.8396.8396 0 0 1-.2877-1.152z" fill="#fff"/><path d="M30.2899 42.805L9.9969 30.6227a.7396.7396 0 1 0-.7614 1.2682l20.293 12.1823c.3731.224.8719.0688 1.053-.3264.1552-.3379.0268-.7507-.2916-.9418z" fill="#fff"/><path fill-rule="evenodd" clip-rule="evenodd" d="M8.8963 30.8245a.8397.8397 0 0 1 1.152-.2877l20.293 12.1824c.362.2173.5076.6849.3311 1.0693-.206.4492-.7711.6251-1.1954.3704L9.184 31.9765a.8397.8397 0 0 1-.2876-1.152zm1.049-.1162a.6396.6396 0 0 0-.6583 1.0967L29.58 43.9874c.3218.1932.7542.0588.9106-.2823.1338-.2915.0226-.6495-.2522-.8144L9.9454 30.7083z" fill="#fff"/><path d="M16.0837 38.8779l-8.117-4.8729a.7395.7395 0 1 0-.7614 1.2682l8.1171 4.8728a.7329.7329 0 0 0 .3799.1059.7393.7393 0 0 0 .6349-.3593.7396.7396 0 0 0-.2535-1.0147z" fill="#fff"/><path fill-rule="evenodd" clip-rule="evenodd" d="M6.8658 34.2068a.84.84 0 0 1 1.1523-.2876l8.1171 4.8728a.8398.8398 0 0 1-.4329 1.5598.8332.8332 0 0 1-.4314-.1201m0 0l-8.1171-4.8728c-.3978-.2387-.5267-.7547-.288-1.1521" fill="#fff"/><path d="M23.5244 43.3448l-4.7349-2.8425a.7397.7397 0 0 0-1.0148.2534.739.739 0 0 0 .2534 1.0148l4.7349 2.8425c.3735.224.8722.0688 1.0534-.3264.1552-.3379.0268-.7507-.292-.9418z" fill="#fff"/><path fill-rule="evenodd" clip-rule="evenodd" d="M17.689 40.7041a.8396.8396 0 0 1 1.1519-.2876l4.7349 2.8425c.3624.2172.508.6849.3315 1.0693-.206.4492-.7711.6251-1.1957.3704l-4.7349-2.8425a.839.839 0 0 1-.2877-1.1521zm0 0zm1.049-.1161a.6395.6395 0 0 0-.8776.2191.6392.6392 0 0 0 .2191.8776l4.7349 2.8425c.3223.1932.7547.0588.9111-.2823.1338-.2914.0226-.6494-.2525-.8144l-4.735-2.8425z" fill="#fff"/></svg>