<svg width="45" height="46" viewBox="0 0 45 46" fill="none" xmlns="http://www.w3.org/2000/svg"><g clip-path="url(#clip0)" fill="#fff"><path d="M41.2501 13.803h-8.25v-3.75c0-.0165-.0085-.0308-.0099-.0473a.707.707 0 0 0-.0381-.1926c-.0084-.0242-.0143-.0472-.0249-.0707a.7464.7464 0 0 0-.1498-.2197l-9-9a.7542.7542 0 0 0-.2205-.1501c-.0227-.0096-.0443-.0158-.0677-.0238a.7432.7432 0 0 0-.1978-.0392c-.012.0018-.0256-.0066-.0413-.0066h-19.5C1.6799.3055.0026 1.9828 0 4.053v34.5c.0025 2.0702 1.6798 3.7474 3.75 3.75h15.825c.3589 1.745 1.8937 2.9978 3.675 3h18c2.0702-.0026 3.7474-1.6798 3.75-3.75v-24c-.0026-2.0702-1.6798-3.7475-3.75-3.75zm-10.8106-4.5h-5.6894a.75.75 0 0 1-.75-.75V2.8635l6.4394 6.4395zM1.5001 38.553v-34.5c0-1.2426 1.0074-2.25 2.25-2.25H22.5v6.75c0 1.2425 1.0074 2.25 2.25 2.25h6.75v3h-8.25c-2.0702.0025-3.7475 1.6798-3.75 3.75v23.25h-15.75c-1.2426 0-2.25-1.0075-2.25-2.25zm42 3c0 1.2425-1.0075 2.25-2.25 2.25h-18c-1.2426 0-2.25-1.0075-2.25-2.25v-24c0-1.2426 1.0074-2.25 2.25-2.25h18c1.2425 0 2.25 1.0074 2.25 2.25v24z"/><path d="M38.2501 16.803h-12c-2.0702.0025-3.7475 1.6798-3.75 3.75v3c.0025 2.0702 1.6798 3.7474 3.75 3.75h12c2.0702-.0026 3.7474-1.6798 3.75-3.75v-3c-.0026-2.0702-1.6798-3.7475-3.75-3.75zm2.25 6.75c0 1.2425-1.0075 2.25-2.25 2.25h-12c-1.2426 0-2.25-1.0075-2.25-2.25v-3c0-1.2426 1.0074-2.25 2.25-2.25h12c1.2425 0 2.25 1.0074 2.25 2.25v3zM25.5001 28.803c-1.6568 0-3 1.3432-3 3 0 1.6567 1.3432 3 3 3 1.6567 0 3-1.3433 3-3 0-1.6568-1.3433-3-3-3zm0 4.5c-.8284 0-1.5-.6717-1.5-1.5 0-.8284.6716-1.5 1.5-1.5.8283 0 1.5.6716 1.5 1.5 0 .8283-.6717 1.5-1.5 1.5zM32.2501 28.803c-1.6568 0-3 1.3432-3 3 0 1.6567 1.3432 3 3 3 1.6567 0 3-1.3433 3-3 0-1.6568-1.3433-3-3-3zm0 4.5c-.8284 0-1.5-.6717-1.5-1.5 0-.8284.6716-1.5 1.5-1.5.8283 0 1.5.6716 1.5 1.5 0 .8283-.6717 1.5-1.5 1.5zM25.5001 36.303c-1.6568 0-3 1.3432-3 3 0 1.6567 1.3432 3 3 3 1.6567 0 3-1.3433 3-3 0-1.6568-1.3433-3-3-3zm0 4.5c-.8284 0-1.5-.6717-1.5-1.5 0-.8284.6716-1.5 1.5-1.5.8283 0 1.5.6716 1.5 1.5 0 .8283-.6717 1.5-1.5 1.5zM32.2501 36.303c-1.6568 0-3 1.3432-3 3 0 1.6567 1.3432 3 3 3 1.6567 0 3-1.3433 3-3 0-1.6568-1.3433-3-3-3zm0 4.5c-.8284 0-1.5-.6717-1.5-1.5 0-.8284.6716-1.5 1.5-1.5.8283 0 1.5.6716 1.5 1.5 0 .8283-.6717 1.5-1.5 1.5zM39.0001 28.803c-1.6568 0-3 1.3432-3 3v7.5c0 1.6567 1.3432 3 3 3 1.6567 0 3-1.3433 3-3v-7.5c0-1.6568-1.3433-3-3-3zm1.5 10.5c0 .8283-.6717 1.5-1.5 1.5-.8284 0-1.5-.6717-1.5-1.5v-7.5c0-.8284.6716-1.5 1.5-1.5.8283 0 1.5.6716 1.5 1.5v7.5zM7.7198 13.5833a.7504.7504 0 0 0 1.0605 0l6.75-6.75a.75.75 0 0 0-1.0605-1.0605l-6.75 6.75a.7503.7503 0 0 0 0 1.0605zM12.0001 12.303c0 1.2425 1.0074 2.25 2.25 2.25 1.2425 0 2.25-1.0075 2.25-2.25 0-1.2426-1.0075-2.25-2.25-2.25-1.2426 0-2.25 1.0074-2.25 2.25zm3 0a.75.75 0 1 1-1.5002-.0002.75.75 0 0 1 1.5002.0002zM9 9.303c1.2426 0 2.2501-1.0075 2.2501-2.25 0-1.2426-1.0075-2.25-2.25-2.25-1.2426 0-2.25 1.0074-2.25 2.25 0 1.2425 1.0074 2.25 2.25 2.25zm0-3a.75.75 0 1 1 0 1.5.75.75 0 0 1 0-1.5zM5.25 20.553h9.0001a.75.75 0 0 0 0-1.5h-9a.75.75 0 0 0 0 1.5zM15.7501 22.053h-10.5a.75.75 0 0 0 0 1.5h10.5a.75.75 0 0 0 0-1.5zM8.25 25.053h-3a.75.75 0 0 0 0 1.5h3a.75.75 0 0 0 0-1.5zM15.7501 25.053h-4.5a.75.75 0 0 0 0 1.5h4.5a.75.75 0 0 0 0-1.5z"/></g><defs><clipPath id="clip0"><path fill="#fff" transform="translate(0 .303)" d="M0 0h45v45H0z"/></clipPath></defs></svg>