<svg width="50" height="51" viewBox="0 0 50 51" fill="none" xmlns="http://www.w3.org/2000/svg"><g clip-path="url(#clip0)" fill="#fff"><path d="M45.8969.3037H15.6232c-.5394 0-.9766.4373-.9766.9766 0 .5392.4372.9765.9766.9765h26.7819a4.076 4.076 0 0 0-.6095 2.1484v12.7912c0 .5392.4372.9765.9765.9765.5394 0 .9766-.4373.9766-.9765v-3.0259h5.2732c.5394 0 .9766-.4373.9766-.9766V4.4052c-.0001-2.2615-1.84-4.1015-4.1016-4.1015zm2.1485 11.9137h-4.2968V4.4052c0-1.1847.9637-2.1484 2.1483-2.1484 1.1846 0 2.1484.9638 2.1484 2.1484v7.8122h.0001zM48.9329 40.1004l-6.3789-6.3789c.7361-1.5013 1.1502-3.188 1.1502-4.9697 0-6.2462-5.0817-11.3277-11.3278-11.3277s-11.3277 5.0815-11.3277 11.3277c0 1.428.2663 2.7949.7508 4.0545l-1.1431 1.1431-4.7015-4.7016a.9766.9766 0 0 0-1.381 0l-1.0991 1.0991v-8.9172c0-.5392-.4372-.9765-.9766-.9765-.5394 0-.9766.4373-.9766.9765v10.8704l-8.8295 8.8296c-.3814.3814-.3814.9997 0 1.3812a.9739.9739 0 0 0 .6905.286c.2499 0 .4999-.0954.6905-.286l7.4485-7.4485v7.0375h-4.296c-.5394 0-.9766.4373-.9766.9765v3.1249c0 2.2615 1.8398 4.1015 4.1014 4.1015h29.2967c2.2617 0 4.1016-1.84 4.1016-4.1017v-.8384c.6832.6632 1.5838 1.0279 2.5456 1.0279l.0184-.0001c.9836-.0048 1.9075-.3898 2.6018-1.0841 1.4403-1.4405 1.4486-3.7758.0184-5.206zM32.3763 19.3771c5.1693 0 9.3747 4.2055 9.3747 9.3747 0 5.1692-4.2054 9.3747-9.3747 9.3747-3.5496 0-6.6446-1.983-8.2356-4.8993l5.6435-5.6436v2.2156c0 .5392.4373.9765.9766.9765.5394 0 .9766-.4373.9766-.9765v-4.6867c0-.5393-.4372-.9766-.9766-.9766H26.074c-.5394 0-.9766.4373-.9766.9766 0 .5392.4372.9765.9766.9765h2.4429l-5.1733 5.1733a9.3535 9.3535 0 0 1-.3419-2.5104c-.0001-5.1694 4.2054-9.3748 9.3746-9.3748zm-22.026 28.9723c-1.1846-.0001-2.1483-.9639-2.1483-2.1485v-2.1483h27.3435v1.1719c0 .0319.0017.0634.0048.0946a.954.954 0 0 0-.0048.0946v.7872c0 .7874.2234 1.5233.6096 2.1486H10.3503v-.0001zm31.4453-2.1488c0 1.1849-.9639 2.1487-2.1485 2.1487-1.1847 0-2.1485-.9639-2.1485-2.1486v-.7872a.987.987 0 0 0-.0048-.0946.987.987 0 0 0 .0048-.0946v-2.1484c0-.5392-.4372-.9765-.9766-.9765H13.4748v-8.9906l1.7895-1.7895 4.7015 4.7016a.9766.9766 0 0 0 1.381 0l1.3655-1.3655c1.9931 3.2508 5.5795 5.424 9.664 5.424 1.7732 0 3.4524-.4099 4.9482-1.1394l4.4711 4.4711v2.7895zm5.7379-2.2756a1.741 1.741 0 0 1-1.2304.512l-.0087.0001c-.4586 0-.8861-.1752-1.2046-.4938l-6.0426-6.0426a11.4236 11.4236 0 0 0 2.4646-2.4594l6.04 6.04c.6687.6688.6605 1.765-.0183 2.4437z"/><path d="M38.5592 27.7751c-.5393 0-.9765.4374-.9765.9766 0 2.8707-2.3356 5.2063-5.2064 5.2063-.5393 0-.9765.4372-.9765.9765 0 .5393.4372.9766.9765.9766 3.9478 0 7.1595-3.2117 7.1595-7.1594 0-.5392-.4372-.9766-.9766-.9766zM25.0116 17.1h-.8913v-6.5427c0-.5393-.4372-.9766-.9766-.9766h-4.4846c-.5393 0-.9765.4373-.9765.9766V17.1h-1.5699V6.5535c0-.5393-.4372-.9766-.9766-.9766h-4.2968c-.5393 0-.9765.4373-.9765.9766V17.1H8.3005v-4.2968c0-.5393-.4372-.9766-.9765-.9766H3.0273c-.5393 0-.9766.4373-.9766.9766V17.1H.9767c-.5394 0-.9766.4373-.9766.9765 0 .5393.4372.9766.9765.9766h24.0351c.5393 0 .9765-.4373.9765-.9766-.0001-.5392-.4373-.9765-.9766-.9765zm-18.664 0H4.0038v-3.3202h2.3436V17.1zm7.8121 0h-2.3436V7.53h2.3436v9.57zm8.0075 0h-2.5314v-5.5662h2.5314V17.1zM32.9543 5.5769h-7.5644c-.5393 0-.9766.4373-.9766.9766 0 .5392.4373.9765.9766.9765h7.5644c.5393 0 .9765-.4373.9765-.9765-.0001-.5393-.4372-.9766-.9765-.9766zM38.4754 5.863a.9841.9841 0 0 0-.6905-.2861.9835.9835 0 0 0-.6904.2861.9842.9842 0 0 0-.2861.6905c0 .2568.1045.5088.2861.6903a.984.984 0 0 0 .6904.2862.9838.9838 0 0 0 .6905-.2862.9837.9837 0 0 0 .2861-.6903.9844.9844 0 0 0-.2861-.6905zM29.172 9.8738h-1.6012c-.5394 0-.9766.4373-.9766.9765 0 .5393.4372.9766.9766.9766h1.6012c.5394 0 .9766-.4373.9766-.9766 0-.5392-.4372-.9765-.9766-.9765zM37.7847 9.8738h-4.8304c-.5394 0-.9766.4373-.9766.9765 0 .5393.4372.9766.9766.9766h4.8304c.5394 0 .9766-.4373.9766-.9766 0-.5392-.4372-.9765-.9766-.9765zM1.668 43.5348a.9839.9839 0 0 0-.6905-.2863.9817.9817 0 0 0-.6904.2863.9793.9793 0 0 0-.2862.6903c0 .2568.1036.5088.2862.6904a.982.982 0 0 0 .6904.2862.985.985 0 0 0 .6904-.2862.9839.9839 0 0 0 .2862-.6904.9831.9831 0 0 0-.2862-.6903z"/></g><defs><clipPath id="clip0"><path fill="#fff" transform="translate(0 .303)" d="M0 0h50v50H0z"/></clipPath></defs></svg>