<svg width="50" height="54" viewBox="0 0 50 54" fill="none" xmlns="http://www.w3.org/2000/svg"><path d="M7.7168 34.3839a.9825.9825 0 0 0-.6904-.2853.9827.9827 0 0 0-.6904.2853.9858.9858 0 0 0-.2861.6913.985.985 0 0 0 .2861.6904.9831.9831 0 0 0 .6904.2862.983.983 0 0 0 .6904-.2862.9856.9856 0 0 0 .2862-.6904.9872.9872 0 0 0-.2862-.6913zM38.1528 23.5948c-2.156-1.4471-4.6732-2.212-7.2797-2.212h-.5703c1.793-1.5167 2.9345-3.781 2.9345-6.3079V8.8095a5.544 5.544 0 0 0 .6602-2.6296V1.2795c0-.5392-.4373-.9765-.9765-.9765H21.5572c-3.1512 0-5.7148 2.5636-5.7148 5.7147V7.628c0 .954.3259 1.8327.871 2.5327v4.9142c0 2.5268 1.1414 4.7912 2.9345 6.3079h-.5211c-2.9707 0-5.8791 1.0233-8.1896 2.8815-2.2755 1.8299-3.8908 4.3956-4.548 7.2243-.1221.5253.2047 1.0501.73 1.1722a.9782.9782 0 0 0 .2219.0256c.444 0 .8455-.3047.9503-.7557 1.0865-4.6754 4.9732-8.0456 9.6621-8.5318l6.3558 6.3558a.974.974 0 0 0 .6906.2861.9735.9735 0 0 0 .6905-.2861l6.3566-6.3565a11.049 11.049 0 0 1 5.0172 1.8183c.4478.3005 1.0545.1813 1.3551-.2665.3006-.4479.1813-1.0546-.2665-1.3551zM17.7957 7.6278v-1.61c0-2.0742 1.6874-3.7617 3.7616-3.7617h10.3873v3.924c0 1.9991-1.6265 3.6256-3.6257 3.6256h-8.3455c-1.2008 0-2.1777-.977-2.1777-2.1778zm7.2044 20.0552l-4.3472-4.3473h4.285c.0126.0001.025.001.0376.001s.025-.0009.0376-.001h4.3342l-4.3472 4.3473zm.013-6.3003h-.0752c-3.4615-.0205-6.2712-2.8418-6.2712-6.3079v-3.529c.4109.1375.8501.213 1.3067.213h8.3455a5.5431 5.5431 0 0 0 2.9654-.8568v4.1728c0 3.4661-2.8098 6.2875-6.2712 6.3079zM26.9532 36.4573c-1.4911 0-2.7556.988-3.1735 2.3437H13.693c-.4179-1.3557-1.6824-2.3437-3.1735-2.3437-1.8309 0-3.3203 1.4894-3.3203 3.3203a3.3 3.3 0 0 0 .3865 1.5526L4.873 44.0429a3.299 3.299 0 0 0-1.5526-.3865C1.4895 43.6564 0 45.1458 0 46.9767s1.4894 3.3203 3.3203 3.3203c1.8308 0 3.3203-1.4894 3.3203-3.3203a3.3 3.3 0 0 0-.3865-1.5526l2.7127-2.7128a3.299 3.299 0 0 0 1.5526.3865c1.4911 0 2.7556-.988 3.1735-2.3437h10.0867c.4179 1.3557 1.6824 2.3437 3.1735 2.3437 1.8308 0 3.3203-1.4895 3.3203-3.3203 0-1.8309-1.4895-3.3202-3.3203-3.3202zM3.3204 48.3439c-.754 0-1.3672-.6133-1.3672-1.3672s.6133-1.3672 1.3672-1.3672 1.3672.6133 1.3672 1.3672-.6133 1.3672-1.3672 1.3672zm7.1991-7.1991c-.754 0-1.3672-.6133-1.3672-1.3672s.6133-1.3672 1.3672-1.3672 1.3672.6133 1.3672 1.3672-.6134 1.3672-1.3672 1.3672zm16.4337 0c-.7539 0-1.3672-.6133-1.3672-1.3672s.6133-1.3672 1.3672-1.3672 1.3672.6133 1.3672 1.3672-.6133 1.3672-1.3672 1.3672zM32.0401 35.0813a.9844.9844 0 0 0-.6904-.2861.9842.9842 0 0 0-.6914.2861.984.984 0 0 0-.2862.6904c0 .2569.1045.5088.2862.6904a.9804.9804 0 0 0 .6914.2862.9816.9816 0 0 0 .6904-.2862.983.983 0 0 0 .2852-.6904.9847.9847 0 0 0-.2852-.6904zM49.0235 17.1047h-3.505c-.5392 0-.9765.4373-.9765.9766s.4373.9766.9765.9766h1.1638L33.329 32.4112c-.3814.3813-.3814.9997 0 1.3811a.9738.9738 0 0 0 .6905.286.9738.9738 0 0 0 .6905-.286l13.337-13.3369v1.1308c0 .5392.4373.9765.9765.9765.5393 0 .9766-.4373.9766-.9765v-3.5049c0-.5394-.4373-.9766-.9766-.9766z" fill="#fff"/><path d="M22.9903 14.1799a.9844.9844 0 0 0-.6904-.2861.9827.9827 0 0 0-.6905.2861.981.981 0 0 0-.2861.6914.982.982 0 0 0 .2861.6905.9823.9823 0 0 0 .6905.2851.9835.9835 0 0 0 .6904-.2851.9863.9863 0 0 0 .2861-.6905.9852.9852 0 0 0-.2861-.6914zM28.3632 14.1799a.984.984 0 0 0-.6903-.2861.984.984 0 0 0-.6904.2861.9843.9843 0 0 0-.2861.6914c0 .2569.1043.5088.2861.6905a.9835.9835 0 0 0 .6904.2851.983.983 0 0 0 .6903-.2851.984.984 0 0 0 .2863-.6905.9841.9841 0 0 0-.2863-.6914zM41.4063 33.1155c-4.7386 0-8.5937 3.8552-8.5937 8.5937 0 4.7386 3.8551 8.5938 8.5937 8.5938s8.5938-3.8552 8.5938-8.5938c0-4.7385-3.8552-8.5937-8.5938-8.5937zm0 15.2344c-3.6616 0-6.6406-2.9791-6.6406-6.6407s2.979-6.6406 6.6406-6.6406 6.6406 2.979 6.6406 6.6406-2.979 6.6407-6.6406 6.6407z" fill="#fff"/><path d="M42.2801 39.303c.66 0 1.21.22 1.65.66.4466.44.67.9866.67 1.64 0 .6466-.2234 1.1933-.67 1.64-.44.44-.99.66-1.65.66h-1.43v2.4h-1.15v-7h2.58zm0 3.52c.34 0 .62-.1134.84-.34.22-.2334.33-.5267.33-.88 0-.3534-.11-.6434-.33-.87-.22-.2334-.5-.35-.84-.35h-1.43v2.44h1.43z" fill="#fff"/><path fill="#fff" d="M39.0001 43.303h3.5v.7h-3.5z"/></svg>