<svg width="50" height="51" viewBox="0 0 50 51" fill="none" xmlns="http://www.w3.org/2000/svg"><g clip-path="url(#clip0)" fill="#fff" stroke="#222" stroke-width=".4"><path d="M10.726 48.7606l-1.4702-2.0709c-.3121-.4398-.9218-.5433-1.3616-.231a.9765.9765 0 0 0-.231 1.3616l1.4702 2.071a.9753.9753 0 0 0 .7972.4113.9723.9723 0 0 0 .5645-.1804.9765.9765 0 0 0 .2309-1.3616zM21.9927 49.1256l-1.6-7.6258c-.778-3.7081-2.9382-6.9146-6.0823-9.0287l-3.4161-2.2971c-1.3698-.9209-3.211-.7228-4.356.4446V18.8515c0-1.5445-1.053-2.8568-2.5607-3.1915-.9732-.2162-1.9769.018-2.7543.6417C.4459 16.9254 0 17.8548 0 18.8515v15.1417c0 1.9837.607 3.8873 1.7554 5.505l1.7415 2.4532a.975.975 0 0 0 .7972.4113.9727.9727 0 0 0 .5644-.1803c.4397-.3122.5433-.9218.231-1.3617L3.348 38.3675c-.9125-1.2854-1.3949-2.798-1.3949-4.3744V18.8515c0-.4012.1795-.7753.4924-1.0265a1.3096 1.3096 0 0 1 1.1088-.2583c.607.1347 1.0309.663 1.0309 1.2848v12.0132c0 1.7006.6248 3.3208 1.7598 4.5814.0486.0583.0986.116.1515.1719.6485.6872 1.411 1.497 2.1292 2.2603l1.0053 1.07c.0033.0034.0068.0063.0101.0097.8601.9147 1.4943 1.5902 1.5076 1.6042.369.3931.9872.4126 1.3804.0434.3931-.3692.4126-.9872.0432-1.3804a4160.6566 4160.6566 0 0 0-2.4664-2.6238l-2.2391-2.3831c-.0057-.006-.0109-.0124-.0165-.0184-.525-.628-.5185-1.5384.0318-2.1597.4868-.5494 1.3134-.6549 1.9225-.2454l3.4159 2.2971c2.7195 1.8286 4.5878 4.6018 5.2606 7.809l1.6001 7.6259c.0966.4602.5025.7761.9548.7761a.9781.9781 0 0 0 .2014-.021c.5279-.1107.866-.6285.7552-1.1563z"/><path d="M7.2353 43.8435l-.0063-.0088c-.3135-.439-.9232-.541-1.3622-.2277-.439.3133-.5409.9231-.2277 1.3621l.0062.0088a.9754.9754 0 0 0 .7958.4094.9714.9714 0 0 0 .5664-.1817c.439-.3133.541-.9231.2278-1.3621zM48.7767 16.302c-.7773-.6237-1.7815-.8575-2.7542-.6417-1.5078.3346-2.5609 1.647-2.5609 3.1915V30.619c-1.1448-1.1675-2.9862-1.3655-4.3559-.4447l-3.4161 2.297c-3.1443 2.1141-5.3043 5.3206-6.0823 9.0288l-1.6 7.6258c-.1108.5279.2273 1.0456.7551 1.1563a.9805.9805 0 0 0 .2015.021c.4524 0 .8582-.316.9548-.7763l1.6-7.6258c.6729-3.2071 2.5411-5.9805 5.2606-7.809l3.4161-2.297c.6089-.4095 1.4355-.3041 1.9225.2454.5496.6205.5569 1.5294.0338 2.1574-.0062.0068-.0122.0138-.0184.0207l-4.7057 5.0069a.9766.9766 0 0 0 1.4237 1.337c.0133-.0141 4.0037-4.2569 4.6522-4.9441a3.8103 3.8103 0 0 0 .1515-.172c1.1349-1.2605 1.7598-2.8808 1.7598-4.5813V18.8517c0-.6217.4239-1.1501 1.031-1.2847a1.3102 1.3102 0 0 1 1.1088.2583 1.31 1.31 0 0 1 .4923 1.0264v15.1418c0 1.5763-.4823 3.0889-1.3948 4.3744l-7.378 10.3932c-.3122.4398-.2088 1.0494.231 1.3616a.9722.9722 0 0 0 .5644.1804.9757.9757 0 0 0 .7972-.4113l7.378-10.3933c1.1483-1.6176 1.7554-3.5212 1.7554-5.5049V18.8517c-.0003-.9966-.446-1.9259-1.2234-2.5497z"/><path d="M37.3688 19.0197l-1.7374-.415v-.3115c1.1292-.7911 1.8697-2.1009 1.8697-3.5812v-2.2587c0-2.41-1.9607-4.3706-4.3707-4.3706-1.0816 0-2.0718.3957-2.8358 1.0488-.8505-2.083-2.8972-3.555-5.2824-3.555-2.388 0-4.4369 1.4758-5.2855 3.5628-.7651-.6578-1.759-1.0568-2.8449-1.0568-2.41 0-4.3707 1.9606-4.3707 4.3706v2.2587c0 1.4803.7404 2.7902 1.8696 3.5812v.3115l-1.7374.415c-2.0744.4956-3.5232 2.3313-3.5232 4.4641v1.8238c0 .5393.4373.9766.9766.9766h4.4875a6.0516 6.0516 0 0 0-.0118.3575v3.5115c0 .5393.4373.9765.9766.9765h5.8701c.5392 0 .9766-.4372.9766-.9765 0-.5394-.4374-.9766-.9766-.9766h-1.009v-2.018c0-.5394-.4373-.9766-.9765-.9766-.5393 0-.9766.4372-.9766.9766v2.0182h-1.9313v-2.5349c0-1.8835 1.2792-3.5055 3.1107-3.9444l2.6799-.6421 1.7934 4.0802a.9765.9765 0 0 0 .8938.5836h.0001a.9765.9765 0 0 0 .894-.5835l1.7916-4.0742 2.6714.6382c1.8332.438 3.1135 2.0601 3.1135 3.945v2.5321h-1.9313v-2.0182c0-.5394-.4373-.9766-.9766-.9766-.5392 0-.9765.4372-.9765.9766v2.0182h-1.1068c-.5392 0-.9765.4372-.9765.9766 0 .5393.4373.9765.9765.9765h5.9679c.5392 0 .9765-.4372.9765-.9765v-3.5087a6.067 6.067 0 0 0-.0119-.3604h4.5002c.5393 0 .9766-.4372.9766-.9765v-1.8238c0-2.1328-1.4489-3.9686-3.5234-4.4641zm-4.2384-8.9841c1.2795 0 2.3298.9991 2.4123 2.2581H34.185a7.1171 7.1171 0 0 1-3.2743-.7981c.3713-.8582 1.2266-1.46 2.2197-1.46zm-2.4176 4.5337c.0012-.0476.0036-.095.0036-.1428v-.8697a9.0717 9.0717 0 0 0 3.4686.69h1.3629v.4651c0 1.333-1.0844 2.4176-2.4175 2.4176s-2.4176-1.0846-2.4176-2.4177v-.1425zm-9.4515-3.2888c0-2.0683 1.6826-3.751 3.7509-3.751 1.8656 0 3.4172 1.369 3.7037 3.1549l-1.644-.966a.9765.9765 0 0 0-1.2432.215 4.2074 4.2074 0 0 1-3.2326 1.5086h-1.3348v-.1615zm-4.3794-1.2449c.9931 0 1.8482.6019 2.2197 1.4599a7.1174 7.1174 0 0 1-3.2743.7981h-1.3577c.0824-1.2589 1.1329-2.258 2.4123-2.258zm-2.4176 4.2111h1.363a9.0719 9.0719 0 0 0 3.4722-.6915v1.1565c0 1.333-1.0845 2.4176-2.4176 2.4176-1.3331 0-2.4176-1.0844-2.4176-2.4175v-.4651zm4.717 6.5512c-1.9213.4604-3.4312 1.7999-4.1499 3.533h-3.9582v-.8472a2.6282 2.6282 0 0 1 2.024-2.5645l2.4871-.5941a.9767.9767 0 0 0 .7497-.9498v-.3283c.1796.0225.3623.0355.5479.0355.1843 0 .3656-.0128.5439-.035v.2786a.9757.9757 0 0 0 .4456.865.9721.9721 0 0 0 .3469.1395l1.4568.349-.4938.1183zm2.724-1.516a4.5825 4.5825 0 0 0-.7819-.2636l-1.7445-.4181v-.3043c.3148-.22.5995-.4801.8463-.7732a5.7506 5.7506 0 0 0 1.6801 1.6839v.0753zm4.2414 1.4349l-1.1428 2.5991-1.1454-2.6058v-.6968a5.7129 5.7129 0 0 0 1.1537.1174c.3884 0 .7677-.0394 1.1345-.1137v.6998zm-1.1345-2.5394c-2.0683.0001-3.7509-1.6826-3.7509-3.7509V13.395h1.3348c1.5487 0 3.0211-.5758 4.1496-1.603l2.0139 1.1832v1.5941c-.0754 2.0023-1.7269 3.6081-3.7474 3.6081zm3.0876 1.1077v-.0662a5.7473 5.7473 0 0 0 1.6941-1.688c.2452.2898.5274.547.8392.765v.3043l-1.7446.4181a4.5896 4.5896 0 0 0-.7887.2668zm10.8391 5.0458h-3.9716c-.7194-1.7331-2.2304-3.0718-4.1528-3.5311l-.4904-.1171 1.4646-.351a.9731.9731 0 0 0 .352-.1406.9757.9757 0 0 0 .4455-.844v-.2996c.1785.0222.3597.035.544.035.1856 0 .3682-.013.5479-.0355v.3283c0 .4519.3102.8448.7497.9498l2.4871.5941a2.6283 2.6283 0 0 1 2.024 2.5645v.8472z"/><path d="M25.6903 29.4622a.9843.9843 0 0 0-.6904-.2852.9808.9808 0 0 0-.6904.2852.982.982 0 0 0-.2861.6914c0 .2568.1035.5078.2861.6904a.9822.9822 0 0 0 .6904.2861.9856.9856 0 0 0 .6904-.2861.9859.9859 0 0 0 .2862-.6904.9858.9858 0 0 0-.2862-.6914zM24.9993.303c-.5393 0-.9766.4372-.9766.9765v1.4613c0 .5393.4373.9765.9766.9765.5392 0 .9765-.4372.9765-.9765V1.2795c0-.5393-.4372-.9765-.9765-.9765zM21.402 3.4884L20.3776 2.465c-.3815-.3813-.9998-.381-1.381.0005-.3813.3816-.3809 1 .0007 1.381L20.0218 4.87a.9731.9731 0 0 0 .6901.2858.9736.9736 0 0 0 .6908-.2864c.3811-.3815.3809-.9999-.0007-1.381zM30.9787 2.4898c-.3815-.3811-1-.381-1.3811.0007L28.5811 3.508c-.3811.3815-.3808.9999.0007 1.381a.9736.9736 0 0 0 .6903.2858.9731.9731 0 0 0 .6908-.2865l1.0165-1.0174c.3811-.3816.3808-1-.0007-1.381z"/></g><defs><clipPath id="clip0"><path fill="#fff" transform="translate(0 .303)" d="M0 0h50v50H0z"/></clipPath></defs></svg>